<?xml version="1.0" encoding="utf-8"?>
<!-- Generator: Adobe Illustrator 26.3.1, SVG Export Plug-In . SVG Version: 6.00 Build 0)  -->
<svg version="1.1" id="Layer_2" xmlns="http://www.w3.org/2000/svg" xmlns:xlink="http://www.w3.org/1999/xlink" x="0px" y="0px"
	 viewBox="0 0 78 56" style="enable-background:new 0 0 78 56;" xml:space="preserve">
<style type="text/css">
	.st0{fill:#EE4626;}
	.st1{fill:#FF4118;}
	.st2{fill:#EAF0F1;}
</style>
<g>
	<path class="st0" d="M52.8,23.1c-1.3-2.3-3.2-4.1-5.5-5.4c-2.3-1.3-4.9-1.9-7.6-1.9c-2.8,0-5.3,0.6-7.7,1.9
		c-2.3,1.3-4.2,3.1-5.5,5.4c-1.4,2.3-2,4.9-2,7.8c0,2.9,0.7,5.5,2,7.8c1.4,2.3,3.2,4.1,5.5,5.4c1.4,0.8,2.9,1.3,4.5,1.6v-4.7
		c0-1.4-1-2.4-1.6-3c0,0,0,0,0,0c-0.1-0.1-0.3-0.2-0.4-0.3c0,0,0,0-0.1,0l0,0c0,0,0,0,0,0c-0.2-0.1-0.3-0.3-0.5-0.5
		c-1.4-1.6-2.1-3.6-2.1-6.3c0-2.6,0.7-4.7,2.1-6.3c1.4-1.5,3.3-2.3,5.7-2.3c2.4,0,4.2,0.8,5.7,2.3c1.4,1.6,2.1,3.6,2.1,6.3
		c0,2.6-0.7,4.7-2.1,6.2c-0.2,0.2-0.3,0.4-0.5,0.5c-0.2,0.2-0.4,0.3-0.6,0.5c-0.6,0.6-1.5,1.6-1.5,2.9h0v4.7
		c1.6-0.3,3.1-0.9,4.6-1.7c2.3-1.3,4.1-3.1,5.5-5.4c1.3-2.3,2-4.9,2-7.8C54.8,28,54.1,25.4,52.8,23.1z"/>
	<g>
		<rect x="32" y="49.5" class="st1" width="14.2" height="6.1"/>
	</g>
	<g>
		<rect x="36" y="0.3" class="st1" width="6.1" height="10.9"/>
	</g>
	<g>
		<rect x="21.8" y="4.5" transform="matrix(0.8146 -0.58 0.58 0.8146 -1.0456 16.2561)" class="st1" width="6.1" height="10.4"/>
	</g>
	<g>
		<rect x="47.8" y="6.7" transform="matrix(0.58 -0.8146 0.8146 0.58 14.3046 47.2738)" class="st1" width="10.4" height="6.1"/>
	</g>
	<g>
		<path class="st2" d="M34.4,37.7C34.4,37.7,34.4,37.7,34.4,37.7L34.4,37.7C34.4,37.7,34.4,37.7,34.4,37.7z"/>
	</g>
</g>
</svg>
