<?xml version="1.0" encoding="utf-8"?>
<!-- Generator: Adobe Illustrator 26.3.1, SVG Export Plug-In . SVG Version: 6.00 Build 0)  -->
<svg version="1.1" id="Layer_2" xmlns="http://www.w3.org/2000/svg" xmlns:xlink="http://www.w3.org/1999/xlink" x="0px" y="0px"
	 viewBox="0 0 269 56" style="enable-background:new 0 0 269 56;" xml:space="preserve">
<style type="text/css">
	.st0{fill:#FFFFFF;}
	.st1{fill:#EE4626;}
	.st2{fill:#FF4118;}
	.st3{fill:#EAF0F1;}
</style>
<path class="st0" d="M26.4,12.6v14.1L17,12.6h-4.1v20.6H17V19l9.3,14.1h4.1V12.6H26.4z"/>
<path class="st0" d="M52.4,15.9v-3.4H40.4v20.6h11.9v-3.4h-7.8v-5.4h6.9v-3.3h-6.9v-5.2H52.4z"/>
<path class="st0" d="M80.6,17.4c-0.9-1.6-2.2-2.9-3.8-3.8c-1.6-0.9-3.4-1.4-5.3-1.4c-1.9,0-3.7,0.4-5.3,1.4
	c-1.6,0.9-2.9,2.2-3.8,3.8C61.5,19,61,20.8,61,22.8c0,2,0.5,3.8,1.4,5.4c0.9,1.6,2.2,2.9,3.8,3.8c1.6,0.9,3.4,1.4,5.3,1.4
	c1.9,0,3.7-0.4,5.3-1.4c1.6-0.9,2.9-2.2,3.8-3.8c0.9-1.6,1.4-3.4,1.4-5.4C82,20.8,81.6,19,80.6,17.4z M77,26.4
	c-0.5,1-1.3,1.8-2.2,2.4c-0.9,0.6-2,0.8-3.3,0.8c-1.2,0-2.3-0.3-3.3-0.8c-0.9-0.6-1.7-1.4-2.2-2.4c-0.5-1-0.8-2.2-0.8-3.6
	c0-1.4,0.3-2.6,0.8-3.6c0.5-1,1.3-1.8,2.2-2.4c1-0.5,2.1-0.8,3.3-0.8c1.2,0,2.3,0.3,3.3,0.8c0.9,0.5,1.7,1.3,2.2,2.4
	c0.5,1,0.8,2.2,0.8,3.6C77.8,24.2,77.5,25.4,77,26.4z"/>
<path class="st0" d="M103.9,12.6v8.4h-8.8v-8.4H91v20.5h4.1v-8.7h8.8v8.7h4.1V12.6H103.9z"/>
<path class="st0" d="M157.5,24.8c1.6-0.4,2.7-1.2,3.5-2.3c0.8-1.1,1.2-2.3,1.2-3.7c0-1.2-0.3-2.2-0.8-3.2c-0.6-1-1.4-1.7-2.5-2.3
	c-1.1-0.6-2.5-0.8-4.1-0.8H147v20.5h4.1v-8h1.9l4.5,8h4.8L157.5,24.8z M154.6,22.1h-3.4v-6h3.4c1.1,0,2,0.3,2.5,0.8
	c0.5,0.5,0.8,1.3,0.8,2.2c0,1-0.3,1.7-0.8,2.2C156.5,21.8,155.7,22.1,154.6,22.1z"/>
<path class="st0" d="M171.8,12.6v20.5h4.1V12.6H171.8z"/>
<path class="st0" d="M199.3,12.6h-14v3.5h9.2L185.3,30v3.2h14v-3.5h-9.2l9.2-13.9V12.6z"/>
<path class="st0" d="M227.3,17.4c-0.9-1.6-2.2-2.9-3.8-3.8c-1.6-0.9-3.4-1.4-5.3-1.4c-1.9,0-3.7,0.4-5.3,1.4
	c-1.6,0.9-2.9,2.2-3.8,3.8c-0.9,1.6-1.4,3.4-1.4,5.4c0,2,0.5,3.8,1.4,5.4c0.9,1.6,2.2,2.9,3.8,3.8c1.6,0.9,3.4,1.4,5.3,1.4
	c1.9,0,3.7-0.4,5.3-1.4c1.6-0.9,2.9-2.2,3.8-3.8c0.9-1.6,1.4-3.4,1.4-5.4C228.7,20.8,228.3,19,227.3,17.4z M223.7,26.4
	c-0.5,1-1.3,1.8-2.2,2.4c-0.9,0.6-2,0.8-3.3,0.8c-1.2,0-2.3-0.3-3.3-0.8c-1-0.6-1.7-1.4-2.2-2.4c-0.5-1-0.8-2.2-0.8-3.6
	c0-1.4,0.3-2.6,0.8-3.6c0.5-1,1.3-1.8,2.2-2.4c1-0.5,2-0.8,3.3-0.8c1.2,0,2.3,0.3,3.3,0.8c0.9,0.5,1.7,1.3,2.2,2.4
	c0.5,1,0.8,2.2,0.8,3.6C224.5,24.2,224.2,25.4,223.7,26.4z"/>
<path class="st0" d="M251.1,12.6v14.1l-9.3-14.1h-4.1v20.6h4.1V19l9.3,14.1h4.1V12.6H251.1z"/>
<g>
	<path class="st0" d="M153.6,44.8h-2.5l-3.9,10.8h2.3l0.7-2h4.3l0.7,2h2.3L153.6,44.8z M150.8,51.8l1.6-4.5l1.6,4.5H150.8z"/>
	<path class="st0" d="M169,44.8v7.4l-4.9-7.4H162v10.8h2.2v-7.4l4.9,7.4h2.2V44.8H169z"/>
	<path class="st0" d="M182.1,44.8h-2.5l-3.9,10.8h2.3l0.7-2h4.3l0.7,2h2.3L182.1,44.8z M179.3,51.8l1.6-4.5l1.6,4.5H179.3z"/>
	<path class="st0" d="M192.7,53.8v-9h-2.2v10.7h5.7v-1.7H192.7z"/>
	<path class="st0" d="M206.8,44.8l-2.3,4.9l-2.3-4.9h-2.4l3.7,7v3.7h2.2v-3.7l3.6-7H206.8z"/>
	<path class="st0" d="M213,44.8v1.7h2.9v9h2.2v-9h2.9v-1.7H213z"/>
	<path class="st0" d="M225.5,44.8v10.7h2.2V44.8H225.5z"/>
	<path class="st0" d="M239.3,53.3c-0.4,0.3-1,0.4-1.5,0.4c-0.6,0-1.2-0.1-1.7-0.4c-0.5-0.3-0.9-0.7-1.1-1.2
		c-0.3-0.5-0.4-1.2-0.4-1.9c0-0.7,0.1-1.3,0.4-1.9c0.3-0.5,0.6-0.9,1.1-1.2c0.5-0.3,1-0.4,1.7-0.4c0.6,0,1.1,0.1,1.5,0.4
		c0.4,0.3,0.8,0.6,1,1.2h2.5c-0.4-1.1-1-1.9-1.9-2.6c-0.9-0.6-2-0.9-3.2-0.9c-1,0-2,0.2-2.8,0.7c-0.8,0.5-1.5,1.1-2,2
		c-0.5,0.8-0.7,1.8-0.7,2.8c0,1.1,0.2,2,0.7,2.8c0.5,0.8,1.1,1.5,2,1.9c0.8,0.5,1.8,0.7,2.8,0.7c1.2,0,2.3-0.3,3.2-0.9
		c0.9-0.6,1.5-1.5,1.9-2.6h-2.5C240.1,52.7,239.8,53.1,239.3,53.3z"/>
	<path class="st0" d="M254.8,50.8c-0.3-0.4-0.7-0.7-1.1-0.9c-0.4-0.2-1-0.4-1.7-0.6c-0.5-0.2-0.9-0.3-1.2-0.4
		c-0.3-0.1-0.5-0.3-0.7-0.5c-0.2-0.2-0.3-0.4-0.3-0.7c0-0.4,0.1-0.7,0.4-0.9c0.3-0.2,0.6-0.3,1-0.3c0.5,0,0.9,0.1,1.2,0.4
		c0.3,0.2,0.4,0.5,0.5,0.9h2.4c-0.1-1-0.5-1.7-1.1-2.3c-0.7-0.5-1.6-0.8-2.7-0.8c-0.7,0-1.4,0.1-2,0.4c-0.6,0.3-1,0.6-1.3,1.1
		c-0.3,0.5-0.5,1-0.5,1.7c0,0.7,0.2,1.2,0.5,1.6c0.3,0.4,0.7,0.7,1.1,0.9c0.4,0.2,1,0.4,1.7,0.6c0.5,0.1,0.9,0.3,1.2,0.4
		c0.3,0.1,0.5,0.3,0.7,0.5c0.2,0.2,0.3,0.5,0.3,0.8c0,0.4-0.1,0.7-0.4,0.9c-0.3,0.2-0.7,0.4-1.2,0.4c-0.5,0-0.9-0.1-1.2-0.4
		c-0.3-0.3-0.4-0.6-0.5-1h-2.3c0,0.7,0.2,1.2,0.5,1.7c0.4,0.5,0.8,0.8,1.4,1.1c0.6,0.3,1.3,0.4,2,0.4c0.8,0,1.5-0.1,2.1-0.4
		c0.6-0.3,1-0.7,1.3-1.2c0.3-0.5,0.4-1,0.4-1.6C255.3,51.8,255.1,51.2,254.8,50.8z"/>
</g>
<g>
	<path class="st1" d="M136.7,17.3c-0.9-1.6-2.2-2.9-3.8-3.8c-1.6-0.9-3.4-1.3-5.3-1.3c-1.9,0-3.7,0.4-5.3,1.3
		c-1.6,0.9-2.9,2.2-3.9,3.8c-1,1.6-1.4,3.4-1.4,5.4c0,2,0.5,3.8,1.4,5.5c0.9,1.6,2.2,2.9,3.9,3.8c1,0.6,2,0.9,3.1,1.1v-3.3
		c0-0.9-0.7-1.7-1.1-2.1c0,0,0,0,0,0c-0.1-0.1-0.2-0.1-0.3-0.2c0,0,0,0,0,0l0,0c0,0,0,0,0,0c-0.1-0.1-0.2-0.2-0.3-0.3
		c-1-1.1-1.5-2.5-1.5-4.4c0-1.8,0.5-3.3,1.5-4.4c1-1.1,2.3-1.6,4-1.6c1.6,0,3,0.5,4,1.6c1,1.1,1.5,2.5,1.5,4.4
		c0,1.8-0.5,3.3-1.5,4.4c-0.1,0.1-0.2,0.2-0.4,0.4c-0.1,0.1-0.3,0.2-0.4,0.3c-0.4,0.4-1.1,1.1-1.1,2h0v3.3c1.1-0.2,2.2-0.6,3.2-1.2
		c1.6-0.9,2.9-2.2,3.8-3.8c0.9-1.6,1.4-3.4,1.4-5.5C138.1,20.7,137.7,18.9,136.7,17.3z"/>
	<g>
		<rect x="122.2" y="35.7" class="st2" width="9.9" height="4.3"/>
	</g>
	<g>
		<rect x="125" y="1.3" class="st2" width="4.3" height="7.6"/>
	</g>
	<g>
		<rect x="115.1" y="4.3" transform="matrix(0.8146 -0.58 0.58 0.8146 17.1131 69.4904)" class="st2" width="4.3" height="7.3"/>
	</g>
	<g>
		<rect x="133.2" y="5.8" transform="matrix(0.58 -0.8146 0.8146 0.58 50.9844 114.8498)" class="st2" width="7.3" height="4.3"/>
	</g>
	<g>
		<path class="st3" d="M123.9,27.5C123.9,27.5,123.9,27.5,123.9,27.5L123.9,27.5C123.9,27.5,123.9,27.5,123.9,27.5z"/>
	</g>
</g>
</svg>
