<?xml version="1.0" encoding="utf-8"?>
<!-- Generator: Adobe Illustrator 26.3.1, SVG Export Plug-In . SVG Version: 6.00 Build 0)  -->
<svg version="1.1" id="Layer_2" xmlns="http://www.w3.org/2000/svg" xmlns:xlink="http://www.w3.org/1999/xlink" x="0px" y="0px"
	 viewBox="0 0 269 56" style="enable-background:new 0 0 269 56;" xml:space="preserve">
<style type="text/css">
	.st0{fill:#231F20;}
	.st1{fill:#1E1E1E;}
	.st2{fill:#FF4118;}
	.st3{fill:#EE4626;}
	.st4{fill:#EAF0F1;}
</style>
<path class="st0" d="M28.5,12.2v14.2l-9.4-14.2h-4.1v20.7h4.1V18.7l9.4,14.2h4.1V12.2H28.5z"/>
<path class="st0" d="M54.6,15.6v-3.4h-12v20.7h12v-3.4h-7.9V24h7v-3.3h-7v-5.2H54.6z"/>
<path class="st0" d="M83.1,17.1c-0.9-1.6-2.2-2.9-3.8-3.8c-1.6-0.9-3.4-1.4-5.3-1.4c-1.9,0-3.7,0.5-5.3,1.4
	c-1.6,0.9-2.9,2.2-3.9,3.8c-0.9,1.6-1.4,3.4-1.4,5.4c0,2,0.5,3.9,1.4,5.5c0.9,1.6,2.2,2.9,3.9,3.8c1.6,0.9,3.4,1.4,5.3,1.4
	c1.9,0,3.7-0.5,5.3-1.4c1.6-0.9,2.9-2.2,3.8-3.8c0.9-1.6,1.4-3.4,1.4-5.5C84.5,20.5,84,18.7,83.1,17.1z M79.4,26.1
	c-0.5,1-1.3,1.9-2.2,2.4c-0.9,0.6-2,0.8-3.3,0.8c-1.2,0-2.3-0.3-3.3-0.8c-1-0.6-1.7-1.4-2.2-2.4s-0.8-2.3-0.8-3.6
	c0-1.4,0.3-2.6,0.8-3.6c0.5-1,1.3-1.8,2.2-2.4c1-0.6,2.1-0.8,3.3-0.8c1.2,0,2.3,0.3,3.3,0.8c0.9,0.6,1.7,1.3,2.2,2.4
	c0.5,1,0.8,2.2,0.8,3.6C80.2,23.9,79.9,25.1,79.4,26.1z"/>
<path class="st0" d="M106.5,12.2v8.5h-8.9v-8.5h-4.1v20.7h4.1v-8.8h8.9v8.8h4.1V12.2H106.5z"/>
<path class="st1" d="M160.3,24.5c1.6-0.4,2.7-1.2,3.5-2.3c0.8-1.1,1.2-2.3,1.2-3.7c0-1.2-0.3-2.3-0.8-3.2c-0.6-1-1.4-1.7-2.5-2.3
	c-1.1-0.6-2.5-0.8-4.1-0.8h-7.8v20.7h4.1v-8.1h2l4.6,8.1h4.8L160.3,24.5z M157.4,21.7H154v-6.1h3.5c1.1,0,2,0.3,2.5,0.8
	c0.6,0.5,0.8,1.3,0.8,2.2c0,1-0.3,1.7-0.8,2.3C159.4,21.4,158.6,21.7,157.4,21.7z"/>
<path class="st1" d="M174.7,12.2v20.7h4.1V12.2H174.7z"/>
<path class="st1" d="M202.4,12.2h-14.1v3.5h9.2l-9.2,14v3.2h14.1v-3.5h-9.3l9.3-14V12.2z"/>
<path class="st1" d="M230.6,17.1c-0.9-1.6-2.2-2.9-3.8-3.8c-1.6-0.9-3.4-1.4-5.3-1.4c-1.9,0-3.7,0.5-5.3,1.4
	c-1.6,0.9-2.9,2.2-3.9,3.8c-0.9,1.6-1.4,3.4-1.4,5.4c0,2,0.5,3.9,1.4,5.5c0.9,1.6,2.2,2.9,3.9,3.8c1.6,0.9,3.4,1.4,5.3,1.4
	c1.9,0,3.7-0.5,5.3-1.4c1.6-0.9,2.9-2.2,3.8-3.8c0.9-1.6,1.4-3.4,1.4-5.5C232.1,20.5,231.6,18.7,230.6,17.1z M227,26.1
	c-0.5,1-1.3,1.9-2.2,2.4c-0.9,0.6-2,0.8-3.3,0.8c-1.2,0-2.3-0.3-3.3-0.8c-1-0.6-1.7-1.4-2.2-2.4c-0.5-1-0.8-2.3-0.8-3.6
	c0-1.4,0.3-2.6,0.8-3.6c0.5-1,1.3-1.8,2.2-2.4c1-0.6,2.1-0.8,3.3-0.8c1.2,0,2.3,0.3,3.3,0.8c0.9,0.6,1.7,1.3,2.2,2.4
	c0.5,1,0.8,2.2,0.8,3.6C227.8,23.9,227.5,25.1,227,26.1z"/>
<path class="st1" d="M254.6,12.2v14.2l-9.4-14.2h-4.1v20.7h4.1V18.7l9.4,14.2h4.1V12.2H254.6z"/>
<g>
	<path class="st2" d="M156.5,44.6H154l-3.9,10.8h2.3l0.7-2.1h4.3l0.7,2.1h2.3L156.5,44.6z M153.6,51.6l1.6-4.5l1.6,4.5H153.6z"/>
	<path class="st2" d="M172,44.6V52l-4.9-7.4h-2.2v10.8h2.2V48l4.9,7.4h2.2V44.6H172z"/>
	<path class="st2" d="M185.1,44.6h-2.5l-3.9,10.8h2.3l0.7-2.1h4.3l0.7,2.1h2.3L185.1,44.6z M182.3,51.6l1.6-4.5l1.6,4.5H182.3z"/>
	<path class="st2" d="M195.8,53.7v-9.1h-2.2v10.8h5.7v-1.7H195.8z"/>
	<path class="st2" d="M210,44.6l-2.3,4.9l-2.3-4.9h-2.4l3.7,7.1v3.8h2.2v-3.8l3.7-7.1H210z"/>
	<path class="st2" d="M216.2,44.6v1.8h2.9v9.1h2.2v-9.1h2.9v-1.8H216.2z"/>
	<path class="st2" d="M228.8,44.6v10.8h2.2V44.6H228.8z"/>
	<path class="st2" d="M242.7,53.2c-0.4,0.3-1,0.4-1.6,0.4c-0.6,0-1.2-0.1-1.7-0.4c-0.5-0.3-0.9-0.7-1.1-1.3
		c-0.3-0.5-0.4-1.2-0.4-1.9c0-0.7,0.1-1.4,0.4-1.9c0.3-0.5,0.7-1,1.1-1.2c0.5-0.3,1.1-0.4,1.7-0.4c0.6,0,1.1,0.1,1.6,0.4
		c0.5,0.3,0.8,0.6,1,1.2h2.5c-0.4-1.1-1-2-1.9-2.6c-0.9-0.6-2-0.9-3.2-0.9c-1,0-2,0.2-2.8,0.7c-0.8,0.5-1.5,1.1-2,2
		c-0.5,0.8-0.7,1.8-0.7,2.9c0,1.1,0.2,2,0.7,2.9c0.5,0.8,1.1,1.5,2,2c0.8,0.5,1.8,0.7,2.8,0.7c1.2,0,2.3-0.3,3.2-0.9
		s1.5-1.5,1.9-2.6h-2.5C243.5,52.5,243.1,52.9,242.7,53.2z"/>
	<path class="st2" d="M258.3,50.7c-0.3-0.4-0.7-0.7-1.1-0.9c-0.4-0.2-1-0.4-1.7-0.6c-0.5-0.2-0.9-0.3-1.2-0.4
		c-0.3-0.1-0.5-0.3-0.7-0.5c-0.2-0.2-0.3-0.4-0.3-0.7c0-0.4,0.1-0.7,0.4-0.9c0.3-0.2,0.6-0.3,1-0.3c0.5,0,0.9,0.1,1.2,0.4
		c0.3,0.2,0.5,0.6,0.5,0.9h2.4c-0.1-1-0.5-1.7-1.2-2.3c-0.7-0.5-1.6-0.8-2.7-0.8c-0.7,0-1.4,0.1-2,0.4c-0.6,0.3-1,0.6-1.3,1.1
		c-0.3,0.5-0.5,1-0.5,1.7c0,0.7,0.2,1.2,0.5,1.6c0.3,0.4,0.7,0.7,1.1,0.9c0.4,0.2,1,0.4,1.7,0.6c0.5,0.1,0.9,0.3,1.2,0.4
		c0.3,0.1,0.5,0.3,0.7,0.5c0.2,0.2,0.3,0.5,0.3,0.8c0,0.4-0.1,0.7-0.4,1c-0.3,0.2-0.7,0.4-1.2,0.4c-0.5,0-0.9-0.1-1.2-0.4
		c-0.3-0.3-0.4-0.6-0.5-1.1h-2.3c0,0.7,0.2,1.2,0.5,1.7c0.4,0.5,0.8,0.9,1.4,1.1c0.6,0.3,1.3,0.4,2,0.4c0.8,0,1.5-0.1,2.1-0.4
		c0.6-0.3,1-0.7,1.3-1.2c0.3-0.5,0.5-1,0.5-1.6C258.7,51.6,258.6,51.1,258.3,50.7z"/>
</g>
<g>
	<path class="st3" d="M139.5,16.9c-0.9-1.6-2.2-2.9-3.9-3.8c-1.6-0.9-3.4-1.4-5.4-1.4c-2,0-3.8,0.5-5.4,1.4
		c-1.6,0.9-2.9,2.2-3.9,3.8c-1,1.6-1.4,3.4-1.4,5.5c0,2,0.5,3.9,1.4,5.5c1,1.6,2.3,2.9,3.9,3.8c1,0.6,2,0.9,3.2,1.2v-3.3
		c0-0.9-0.7-1.7-1.1-2.1c0,0,0,0,0,0c-0.1-0.1-0.2-0.1-0.3-0.2c0,0,0,0,0,0l0,0c0,0,0,0,0,0c-0.1-0.1-0.2-0.2-0.3-0.3
		c-1-1.1-1.5-2.6-1.5-4.4c0-1.9,0.5-3.3,1.5-4.4c1-1.1,2.3-1.6,4-1.6c1.7,0,3,0.5,4,1.6c1,1.1,1.5,2.6,1.5,4.4
		c0,1.8-0.5,3.3-1.5,4.4c-0.1,0.1-0.2,0.2-0.4,0.4c-0.1,0.1-0.3,0.2-0.4,0.3c-0.4,0.4-1.1,1.1-1.1,2.1h0v3.3
		c1.1-0.2,2.2-0.6,3.2-1.2c1.6-0.9,2.9-2.2,3.9-3.8c0.9-1.6,1.4-3.5,1.4-5.5C140.9,20.4,140.4,18.6,139.5,16.9z"/>
	<g>
		<rect x="124.9" y="35.5" class="st2" width="10" height="4.3"/>
	</g>
	<g>
		<rect x="127.7" y="0.9" class="st2" width="4.3" height="7.7"/>
	</g>
	<g>
		<rect x="117.7" y="3.9" transform="matrix(0.8146 -0.58 0.58 0.8146 17.8489 70.9399)" class="st2" width="4.3" height="7.3"/>
	</g>
	<g>
		<rect x="136" y="5.4" transform="matrix(0.58 -0.8146 0.8146 0.58 52.4882 116.9147)" class="st2" width="7.3" height="4.3"/>
	</g>
	<g>
		<path class="st4" d="M126.6,27.2C126.6,27.2,126.6,27.2,126.6,27.2L126.6,27.2C126.6,27.2,126.6,27.2,126.6,27.2z"/>
	</g>
</g>
</svg>
