<?xml version="1.0" encoding="utf-8"?>
<!-- Generator: Adobe Illustrator 26.3.1, SVG Export Plug-In . SVG Version: 6.00 Build 0)  -->
<svg version="1.1" id="Layer_2" xmlns="http://www.w3.org/2000/svg" xmlns:xlink="http://www.w3.org/1999/xlink" x="0px" y="0px"
	 viewBox="0 0 78 56" style="enable-background:new 0 0 78 56;" xml:space="preserve">
<style type="text/css">
	.st0{fill:#EE4626;}
	.st1{fill:#FF4118;}
	.st2{fill:#EAF0F1;}
</style>
<g>
	<path class="st0" d="M53,23.1c-1.3-2.3-3.2-4.2-5.5-5.5c-2.3-1.3-4.9-2-7.7-2c-2.8,0-5.4,0.7-7.7,2c-2.3,1.3-4.2,3.1-5.6,5.5
		c-1.4,2.3-2.1,5-2.1,7.9c0,2.9,0.7,5.6,2.1,7.9c1.4,2.3,3.2,4.2,5.6,5.5c1.4,0.8,2.9,1.3,4.5,1.7v-4.8c0-1.4-1-2.5-1.6-3
		c0,0,0,0,0,0c-0.1-0.1-0.3-0.2-0.4-0.3c0,0,0,0-0.1,0l0,0c0,0,0,0,0,0c-0.2-0.1-0.3-0.3-0.5-0.5c-1.4-1.6-2.2-3.7-2.2-6.3
		c0-2.7,0.7-4.8,2.2-6.4c1.4-1.6,3.4-2.3,5.8-2.3c2.4,0,4.3,0.8,5.7,2.4c1.4,1.6,2.2,3.7,2.2,6.3c0,2.6-0.7,4.7-2.2,6.3
		c-0.2,0.2-0.3,0.4-0.5,0.5c-0.2,0.2-0.4,0.3-0.6,0.5c-0.6,0.6-1.5,1.6-1.5,3h0v4.8c1.6-0.3,3.2-0.9,4.6-1.7
		c2.3-1.3,4.2-3.1,5.5-5.5c1.4-2.3,2-5,2-7.9C55,28.1,54.3,25.4,53,23.1z"/>
	<g>
		<rect x="32" y="49.8" class="st1" width="14.4" height="6.2"/>
	</g>
	<g>
		<rect x="36" class="st1" width="6.2" height="11.1"/>
	</g>
	<g>
		<rect x="21.7" y="4.3" transform="matrix(0.8146 -0.58 0.58 0.8146 -0.9715 16.1578)" class="st1" width="6.2" height="10.6"/>
	</g>
	<g>
		<rect x="47.9" y="6.5" transform="matrix(0.58 -0.8146 0.8146 0.58 14.5279 47.3767)" class="st1" width="10.6" height="6.2"/>
	</g>
	<g>
		<path class="st2" d="M34.4,37.8C34.4,37.8,34.4,37.8,34.4,37.8L34.4,37.8C34.4,37.8,34.4,37.8,34.4,37.8z"/>
	</g>
</g>
</svg>
